<svg width="19" height="19" viewBox="0 0 19 19" fill="none" xmlns="http://www.w3.org/2000/svg">
<path d="M16.6667 0C17.2192 0 17.7491 0.219493 18.1398 0.610194C18.5305 1.00089 18.75 1.5308 18.75 2.08333V16.6667C18.75 17.2192 18.5305 17.7491 18.1398 18.1398C17.7491 18.5305 17.2192 18.75 16.6667 18.75H2.08333C1.5308 18.75 1.00089 18.5305 0.610194 18.1398C0.219493 17.7491 0 17.2192 0 16.6667V2.08333C0 1.5308 0.219493 1.00089 0.610194 0.610194C1.00089 0.219493 1.5308 0 2.08333 0H16.6667ZM16.1458 16.1458V10.625C16.1458 9.72437 15.7881 8.86062 15.1512 8.22378C14.5144 7.58694 13.6506 7.22917 12.75 7.22917C11.8646 7.22917 10.8333 7.77083 10.3333 8.58333V7.42708H7.42708V16.1458H10.3333V11.0104C10.3333 10.2083 10.9792 9.55208 11.7812 9.55208C12.168 9.55208 12.539 9.70573 12.8124 9.97922C13.0859 10.2527 13.2396 10.6236 13.2396 11.0104V16.1458H16.1458ZM4.04167 5.79167C4.5058 5.79167 4.95092 5.60729 5.2791 5.2791C5.60729 4.95092 5.79167 4.5058 5.79167 4.04167C5.79167 3.07292 5.01042 2.28125 4.04167 2.28125C3.57478 2.28125 3.12701 2.46672 2.79686 2.79686C2.46672 3.12701 2.28125 3.57478 2.28125 4.04167C2.28125 5.01042 3.07292 5.79167 4.04167 5.79167ZM5.48958 16.1458V7.42708H2.60417V16.1458H5.48958Z" fill="#022B3A"/>
</svg>
