<svg width="80" height="47" viewBox="0 0 80 47" fill="none" xmlns="http://www.w3.org/2000/svg">
<path d="M20.9272 17.266V28.9132H54.2545V17.266" stroke="url(#paint0_linear_77_4)" stroke-width="2" stroke-linecap="round"/>
<path d="M25.8909 17.2659V25.0977H49.2909V13.0488" stroke="url(#paint1_linear_77_4)" stroke-width="2" stroke-linecap="round"/>
<path d="M44.7999 24.8969V5.0163" stroke="url(#paint2_linear_77_4)" stroke-width="2" stroke-linecap="round"/>
<path d="M40.0727 1L30.6182 13.0488V21.0814H40.0727V9.23338" stroke="url(#paint3_linear_77_4)" stroke-width="2" stroke-linecap="round"/>
<path d="M35.3455 13.2497V17.0651" stroke="url(#paint4_linear_77_4)" stroke-width="2" stroke-linecap="round"/>
<rect x="12" y="33" width="52" height="3" fill="url(#paint5_linear_77_4)"/>
<path d="M20.9272 17.266V28.9132H54.2545V17.266" stroke="url(#paint6_linear_77_4)" stroke-width="2" stroke-linecap="round"/>
<path d="M25.8909 17.2659V25.0977H49.2909V13.0488" stroke="url(#paint7_linear_77_4)" stroke-width="2" stroke-linecap="round"/>
<path d="M44.7999 24.8969V5.0163" stroke="url(#paint8_linear_77_4)" stroke-width="2" stroke-linecap="round"/>
<path d="M40.0727 1L30.6182 13.0488V21.0814H40.0727V9.23338" stroke="url(#paint9_linear_77_4)" stroke-width="2" stroke-linecap="round"/>
<path d="M35.3455 13.2497V17.0651" stroke="url(#paint10_linear_77_4)" stroke-width="2" stroke-linecap="round"/>
<path d="M2.432 46C1.82133 46 1.36933 45.8547 1.076 45.564C0.785333 45.2707 0.64 44.8187 0.64 44.208V42.36C0.64 41.744 0.786667 41.292 1.08 41.004C1.37333 40.7133 1.824 40.5707 2.432 40.576H3.392C4.00533 40.576 4.45733 40.7213 4.748 41.012C5.03867 41.3027 5.184 41.7547 5.184 42.368V44.208C5.184 44.8187 5.03867 45.2707 4.748 45.564C4.45733 45.8547 4.00533 46 3.392 46H2.432ZM2.432 45.328H3.392C3.67733 45.328 3.90133 45.2947 4.064 45.228C4.22667 45.1587 4.34133 45.0427 4.408 44.88C4.47733 44.7173 4.512 44.4933 4.512 44.208V42.368C4.512 42.0853 4.47733 41.8627 4.408 41.7C4.34133 41.5373 4.22667 41.4213 4.064 41.352C3.90133 41.2827 3.67733 41.248 3.392 41.248H2.432C2.14933 41.2453 1.92667 41.2773 1.764 41.344C1.60133 41.4107 1.48533 41.5253 1.416 41.688C1.34667 41.8507 1.312 42.0747 1.312 42.36V44.208C1.312 44.4933 1.34533 44.7173 1.412 44.88C1.48133 45.0427 1.59733 45.1587 1.76 45.228C1.92267 45.2947 2.14667 45.328 2.432 45.328ZM6.98831 46C6.76431 46 6.65231 45.888 6.65231 45.664V40.912C6.65231 40.688 6.76431 40.576 6.98831 40.576C7.21231 40.576 7.32431 40.688 7.32431 40.912V45.328H9.54031C9.76431 45.328 9.87631 45.44 9.87631 45.664C9.87631 45.888 9.76431 46 9.54031 46H6.98831ZM11.3164 46C11.0924 46 10.9804 45.888 10.9804 45.664V40.912C10.9804 40.688 11.0924 40.576 11.3164 40.576C11.4631 40.576 11.5858 40.648 11.6844 40.792L13.5724 43.632L13.4284 43.656L15.3324 40.792C15.4231 40.648 15.5591 40.576 15.7404 40.576C15.9218 40.576 16.0124 40.688 16.0124 40.912V45.664C16.0124 45.888 15.9004 46 15.6764 46C15.4524 46 15.3404 45.888 15.3404 45.664V41.584L15.5484 41.656L13.8684 44.128C13.7698 44.272 13.6338 44.344 13.4604 44.344C13.3404 44.344 13.2311 44.272 13.1324 44.128L11.4524 41.656L11.6524 41.712V45.664C11.6524 45.888 11.5404 46 11.3164 46ZM17.4198 45.968C17.2064 45.8853 17.1424 45.7387 17.2278 45.528L19.1318 40.84C19.2118 40.664 19.3371 40.576 19.5078 40.576H19.5238C19.6971 40.584 19.8144 40.672 19.8758 40.84L21.8118 45.528C21.8971 45.7387 21.8358 45.8853 21.6278 45.968C21.4171 46.0507 21.2704 45.9893 21.1878 45.784L20.7558 44.736H18.2638L17.8518 45.784C17.7691 45.992 17.6251 46.0533 17.4198 45.968ZM18.5278 44.064H20.4798L19.4838 41.64L18.5278 44.064ZM23.9873 46C23.8753 46 23.7913 45.972 23.7352 45.916C23.6793 45.86 23.6513 45.776 23.6513 45.664V41.256H22.0993C21.9873 41.256 21.9033 41.228 21.8473 41.172C21.7913 41.116 21.7633 41.032 21.7633 40.92C21.7633 40.808 21.7913 40.724 21.8473 40.668C21.9033 40.612 21.9873 40.584 22.0993 40.584H25.8753C25.9873 40.584 26.0713 40.612 26.1273 40.668C26.1833 40.724 26.2113 40.808 26.2113 40.92C26.2113 41.032 26.1833 41.116 26.1273 41.172C26.0713 41.228 25.9873 41.256 25.8753 41.256H24.3233V45.664C24.3233 45.7707 24.2939 45.8533 24.2353 45.912C24.1793 45.9707 24.0966 46 23.9873 46ZM31.3929 46C30.7823 46 30.3303 45.8547 30.0369 45.564C29.7463 45.2707 29.6009 44.8187 29.6009 44.208V42.36C29.6009 41.744 29.7476 41.292 30.0409 41.004C30.3343 40.7133 30.7849 40.5707 31.3929 40.576H32.3529C32.9663 40.576 33.4183 40.7213 33.7089 41.012C33.9996 41.3027 34.1449 41.7547 34.1449 42.368V44.208C34.1449 44.8187 33.9996 45.2707 33.7089 45.564C33.4183 45.8547 32.9663 46 32.3529 46H31.3929ZM31.3929 45.328H32.3529C32.6383 45.328 32.8623 45.2947 33.0249 45.228C33.1876 45.1587 33.3023 45.0427 33.3689 44.88C33.4383 44.7173 33.4729 44.4933 33.4729 44.208V42.368C33.4729 42.0853 33.4383 41.8627 33.3689 41.7C33.3023 41.5373 33.1876 41.4213 33.0249 41.352C32.8623 41.2827 32.6383 41.248 32.3529 41.248H31.3929C31.1103 41.2453 30.8876 41.2773 30.7249 41.344C30.5623 41.4107 30.4463 41.5253 30.3769 41.688C30.3076 41.8507 30.2729 42.0747 30.2729 42.36V44.208C30.2729 44.4933 30.3063 44.7173 30.3729 44.88C30.4423 45.0427 30.5583 45.1587 30.7209 45.228C30.8836 45.2947 31.1076 45.328 31.3929 45.328ZM35.9493 46C35.7253 46 35.6133 45.888 35.6133 45.664V40.912C35.6133 40.688 35.7253 40.576 35.9493 40.576C36.1733 40.576 36.2853 40.688 36.2853 40.912V45.328H38.5013C38.7253 45.328 38.8373 45.44 38.8373 45.664C38.8373 45.888 38.7253 46 38.5013 46H35.9493ZM40.2774 46C40.1627 46 40.0774 45.9733 40.0214 45.92C39.968 45.864 39.9414 45.7787 39.9414 45.664V40.92C39.9414 40.8027 39.968 40.7173 40.0214 40.664C40.0774 40.6107 40.1627 40.584 40.2774 40.584C40.3947 40.584 40.48 40.6107 40.5334 40.664C40.5867 40.7173 40.6134 40.8027 40.6134 40.92V45.664C40.6134 45.7787 40.5867 45.864 40.5334 45.92C40.48 45.9733 40.3947 46 40.2774 46ZM42.6133 46C42.3893 46 42.2773 45.888 42.2773 45.664V40.912C42.2773 40.688 42.3893 40.576 42.6133 40.576H45.5573C45.6613 40.576 45.7426 40.6067 45.8013 40.668C45.8626 40.7267 45.8933 40.808 45.8933 40.912C45.8933 41.136 45.7813 41.248 45.5573 41.248H42.9493V42.928H44.5573C44.7813 42.928 44.8933 43.04 44.8933 43.264C44.8933 43.488 44.7813 43.6 44.5573 43.6H42.9493V45.664C42.9493 45.888 42.8373 46 42.6133 46ZM47.0586 46C46.944 46 46.8586 45.9733 46.8026 45.92C46.7493 45.864 46.7226 45.7787 46.7226 45.664V40.92C46.7226 40.8027 46.7493 40.7173 46.8026 40.664C46.8586 40.6107 46.944 40.584 47.0586 40.584C47.176 40.584 47.2613 40.6107 47.3146 40.664C47.368 40.7173 47.3946 40.8027 47.3946 40.92V45.664C47.3946 45.7787 47.368 45.864 47.3146 45.92C47.2613 45.9733 47.176 46 47.0586 46ZM52.5466 46.016C52.4586 46.072 52.3746 46.0893 52.2946 46.068C52.2146 46.0467 52.1466 45.992 52.0906 45.904L50.8506 43.84H49.7306V45.664C49.7306 45.888 49.6186 46 49.3946 46C49.1706 46 49.0586 45.888 49.0586 45.664V40.912C49.0586 40.688 49.1706 40.576 49.3946 40.576H51.2666C51.7546 40.576 52.1279 40.7067 52.3866 40.968C52.6479 41.2267 52.7786 41.6 52.7786 42.088V42.328C52.7786 42.752 52.6799 43.0907 52.4826 43.344C52.2852 43.5947 51.9999 43.7507 51.6266 43.812L52.6746 45.56C52.7759 45.7467 52.7332 45.8987 52.5466 46.016ZM49.7306 43.168H51.2666C51.5706 43.168 51.7866 43.104 51.9146 42.976C52.0426 42.848 52.1066 42.632 52.1066 42.328V42.088C52.1066 41.7867 52.0426 41.572 51.9146 41.444C51.7866 41.3133 51.5706 41.248 51.2666 41.248H49.7306V43.168ZM55.6586 46C55.0479 46 54.5959 45.8547 54.3026 45.564C54.0119 45.2707 53.8666 44.8187 53.8666 44.208V42.36C53.8666 41.744 54.0132 41.292 54.3066 41.004C54.5999 40.7133 55.0506 40.5707 55.6586 40.576H56.6186C57.2319 40.576 57.6839 40.7213 57.9746 41.012C58.2652 41.3027 58.4106 41.7547 58.4106 42.368V44.208C58.4106 44.8187 58.2652 45.2707 57.9746 45.564C57.6839 45.8547 57.2319 46 56.6186 46H55.6586ZM55.6586 45.328H56.6186C56.9039 45.328 57.1279 45.2947 57.2906 45.228C57.4532 45.1587 57.5679 45.0427 57.6346 44.88C57.7039 44.7173 57.7386 44.4933 57.7386 44.208V42.368C57.7386 42.0853 57.7039 41.8627 57.6346 41.7C57.5679 41.5373 57.4532 41.4213 57.2906 41.352C57.1279 41.2827 56.9039 41.248 56.6186 41.248H55.6586C55.3759 41.2453 55.1532 41.2773 54.9906 41.344C54.8279 41.4107 54.7119 41.5253 54.6426 41.688C54.5732 41.8507 54.5386 42.0747 54.5386 42.36V44.208C54.5386 44.4933 54.5719 44.7173 54.6386 44.88C54.7079 45.0427 54.8239 45.1587 54.9866 45.228C55.1492 45.2947 55.3732 45.328 55.6586 45.328ZM60.8866 46C60.74 46 60.636 45.904 60.5746 45.712L59.0946 41.024C59.0626 40.9227 59.0773 40.8213 59.1386 40.72C59.2026 40.6187 59.2946 40.568 59.4146 40.568C59.4786 40.568 59.54 40.5893 59.5986 40.632C59.6573 40.672 59.7 40.736 59.7266 40.824L61.0306 44.976H60.8546L62.0946 40.864C62.124 40.768 62.1733 40.696 62.2426 40.648C62.3146 40.6 62.388 40.576 62.4626 40.576C62.5426 40.576 62.62 40.6 62.6946 40.648C62.7693 40.696 62.82 40.768 62.8466 40.864L64.0866 44.976H63.9106L65.2146 40.824C65.244 40.736 65.2853 40.6733 65.3386 40.636C65.3946 40.596 65.4546 40.576 65.5186 40.576C65.636 40.576 65.7293 40.6213 65.7986 40.712C65.868 40.8027 65.884 40.9067 65.8466 41.024L64.3666 45.712C64.3026 45.904 64.1853 46 64.0146 46H63.9986C63.82 46 63.7026 45.904 63.6466 45.712L62.3586 41.544H62.5346L61.2386 45.712C61.212 45.808 61.172 45.88 61.1186 45.928C61.068 45.976 60.9906 46 60.8866 46ZM67.2227 46C67.108 46 67.0227 45.9733 66.9667 45.92C66.9134 45.864 66.8867 45.7787 66.8867 45.664V40.92C66.8867 40.8027 66.9134 40.7173 66.9667 40.664C67.0227 40.6107 67.108 40.584 67.2227 40.584C67.34 40.584 67.4254 40.6107 67.4787 40.664C67.532 40.7173 67.5587 40.8027 67.5587 40.92V45.664C67.5587 45.7787 67.532 45.864 67.4787 45.92C67.4254 45.9733 67.34 46 67.2227 46ZM70.8226 46C70.212 46 69.76 45.8547 69.4666 45.564C69.176 45.2707 69.0306 44.8187 69.0306 44.208V42.368C69.0306 41.752 69.176 41.2987 69.4666 41.008C69.7573 40.7147 70.2066 40.5707 70.8146 40.576H71.7826C72.284 40.576 72.6666 40.68 72.9306 40.888C73.1946 41.0933 73.348 41.4187 73.3906 41.864C73.4066 41.976 73.3853 42.0613 73.3266 42.12C73.268 42.1787 73.1826 42.208 73.0706 42.208C72.868 42.208 72.7506 42.096 72.7186 41.872C72.692 41.6267 72.6066 41.4613 72.4626 41.376C72.3213 41.2907 72.0946 41.248 71.7826 41.248H70.8146C70.532 41.2453 70.3093 41.2773 70.1466 41.344C69.9866 41.4107 69.872 41.5267 69.8026 41.692C69.736 41.8547 69.7026 42.08 69.7026 42.368V44.208C69.7026 44.4933 69.736 44.7173 69.8026 44.88C69.872 45.0427 69.988 45.1587 70.1506 45.228C70.3133 45.2947 70.5373 45.328 70.8226 45.328H71.7826C72.0946 45.328 72.3213 45.2853 72.4626 45.2C72.6066 45.112 72.692 44.9467 72.7186 44.704C72.7506 44.48 72.868 44.368 73.0706 44.368C73.1826 44.368 73.268 44.3973 73.3266 44.456C73.3853 44.5147 73.4066 44.6 73.3906 44.712C73.348 45.16 73.1946 45.4867 72.9306 45.692C72.6666 45.8973 72.284 46 71.7826 46H70.8226ZM74.7929 46C74.5743 46 74.4649 45.888 74.4649 45.664C74.4649 45.6267 74.4756 45.5853 74.4969 45.54C74.5183 45.4947 74.5503 45.44 74.5929 45.376L77.8089 41.168V41.248H75.6729C75.5023 41.248 75.3689 41.2733 75.2729 41.324C75.1769 41.3747 75.1103 41.4587 75.0729 41.576C75.0489 41.6747 75.0116 41.752 74.9609 41.808C74.9103 41.8613 74.8303 41.888 74.7209 41.888C74.6089 41.888 74.5209 41.8573 74.4569 41.796C74.3956 41.7347 74.3743 41.648 74.3929 41.536C74.4569 41.2267 74.5956 40.9893 74.8089 40.824C75.0249 40.6587 75.3129 40.576 75.6729 40.576H78.3449C78.5689 40.576 78.6809 40.688 78.6809 40.912C78.6809 40.9547 78.6716 41 78.6529 41.048C78.6343 41.096 78.6009 41.152 78.5529 41.216L75.3769 45.36V45.328H77.7449C77.9263 45.328 78.0649 45.304 78.1609 45.256C78.2569 45.2053 78.3209 45.12 78.3529 45C78.3823 44.8987 78.4223 44.8213 78.4729 44.768C78.5263 44.7147 78.6063 44.688 78.7129 44.688C78.8249 44.688 78.9116 44.7187 78.9729 44.78C79.0343 44.8413 79.0569 44.928 79.0409 45.04C78.9103 45.68 78.4783 46 77.7449 46H74.7929Z" fill="#1A718C" fill-opacity="0.91"/>
<rect x="12" y="33" width="52" height="3" fill="url(#paint11_linear_77_4)"/>
<defs>
<linearGradient id="paint0_linear_77_4" x1="37.5909" y1="17.266" x2="37.5909" y2="28.9132" gradientUnits="userSpaceOnUse">
<stop stop-color="#80DFD9"/>
<stop offset="1" stop-color="#1A718C" stop-opacity="0.91"/>
</linearGradient>
<linearGradient id="paint1_linear_77_4" x1="37.5909" y1="13.0488" x2="37.5909" y2="25.0977" gradientUnits="userSpaceOnUse">
<stop stop-color="#80DFD9"/>
<stop offset="1" stop-color="#1A718C" stop-opacity="0.91"/>
</linearGradient>
<linearGradient id="paint2_linear_77_4" x1="45.2999" y1="5.0163" x2="45.2999" y2="24.8969" gradientUnits="userSpaceOnUse">
<stop stop-color="#80DFD9"/>
<stop offset="1" stop-color="#1A718C" stop-opacity="0.91"/>
</linearGradient>
<linearGradient id="paint3_linear_77_4" x1="35.3454" y1="1" x2="35.3454" y2="21.0814" gradientUnits="userSpaceOnUse">
<stop stop-color="#80DFD9"/>
<stop offset="1" stop-color="#1A718C" stop-opacity="0.91"/>
</linearGradient>
<linearGradient id="paint4_linear_77_4" x1="35.8455" y1="13.2497" x2="35.8455" y2="17.0651" gradientUnits="userSpaceOnUse">
<stop stop-color="#80DFD9"/>
<stop offset="1" stop-color="#1A718C" stop-opacity="0.91"/>
</linearGradient>
<linearGradient id="paint5_linear_77_4" x1="12" y1="34.0001" x2="64" y2="34.0001" gradientUnits="userSpaceOnUse">
<stop stop-color="#1A718C" stop-opacity="0.47"/>
<stop offset="0.516872" stop-color="#27A3CA" stop-opacity="0.55"/>
<stop offset="1" stop-color="#4A8497" stop-opacity="0.4"/>
</linearGradient>
<linearGradient id="paint6_linear_77_4" x1="37.5909" y1="17.266" x2="37.5909" y2="28.9132" gradientUnits="userSpaceOnUse">
<stop stop-color="#80DFD9"/>
<stop offset="1" stop-color="#1A718C" stop-opacity="0.91"/>
</linearGradient>
<linearGradient id="paint7_linear_77_4" x1="37.5909" y1="13.0488" x2="37.5909" y2="25.0977" gradientUnits="userSpaceOnUse">
<stop stop-color="#80DFD9"/>
<stop offset="1" stop-color="#1A718C" stop-opacity="0.91"/>
</linearGradient>
<linearGradient id="paint8_linear_77_4" x1="45.2999" y1="5.0163" x2="45.2999" y2="24.8969" gradientUnits="userSpaceOnUse">
<stop stop-color="#80DFD9"/>
<stop offset="1" stop-color="#1A718C" stop-opacity="0.91"/>
</linearGradient>
<linearGradient id="paint9_linear_77_4" x1="35.3454" y1="1" x2="35.3454" y2="21.0814" gradientUnits="userSpaceOnUse">
<stop stop-color="#80DFD9"/>
<stop offset="1" stop-color="#1A718C" stop-opacity="0.91"/>
</linearGradient>
<linearGradient id="paint10_linear_77_4" x1="35.8455" y1="13.2497" x2="35.8455" y2="17.0651" gradientUnits="userSpaceOnUse">
<stop stop-color="#80DFD9"/>
<stop offset="1" stop-color="#1A718C" stop-opacity="0.91"/>
</linearGradient>
<linearGradient id="paint11_linear_77_4" x1="12" y1="34.0001" x2="64" y2="34.0001" gradientUnits="userSpaceOnUse">
<stop stop-color="#1A718C" stop-opacity="0.47"/>
<stop offset="0.516872" stop-color="#27A3CA" stop-opacity="0.55"/>
<stop offset="1" stop-color="#4A8497" stop-opacity="0.4"/>
</linearGradient>
</defs>
</svg>
