<svg width="18" height="17" viewBox="0 0 18 17" fill="none" xmlns="http://www.w3.org/2000/svg">
<path d="M3.62 6.9759C5.06 9.51015 7.38 11.5787 10.21 12.8772L12.41 10.9071C12.68 10.6653 13.08 10.5847 13.43 10.6922C14.55 11.0235 15.76 11.2026 17 11.2026C17.55 11.2026 18 11.6056 18 12.0981V15.2234C18 15.7159 17.55 16.1189 17 16.1189C7.61 16.1189 0 9.30419 0 0.895495C0 0.402973 0.45 0 1 0H4.5C5.05 0 5.5 0.402973 5.5 0.895495C5.5 2.01486 5.7 3.08946 6.07 4.09241C6.18 4.40583 6.1 4.75508 5.82 5.00582L3.62 6.9759Z" fill="#022B3A"/>
</svg>
