<?xml version="1.0" encoding="iso-8859-1"?>
<!-- Uploaded to: SVG Repo, www.svgrepo.com, Generator: SVG Repo Mixer Tools -->
<svg fill="#000000" height="800px" width="800px" version="1.1" id="Layer_1" xmlns="http://www.w3.org/2000/svg" xmlns:xlink="http://www.w3.org/1999/xlink" 
	 viewBox="0 0 465 465" xml:space="preserve">
<g>
	<g>
		<path d="M360,450v-75h20v22.5h15V330h-35v-65h20v22.5h15V220h-35v-65h20v22.5h15V110h-35V45h20v22.5h15V0H70v67.5h15V45h20v65H70
			v67.5h15V155h20v65H70v67.5h15V265h20v65H70v67.5h15V375h20v75H47.5v15h370v-15H360z M85,30V15h295v15H85z M345,45v65h-25V45H345z
			 M215.729,77.5L160,105.365v-55.73L215.729,77.5z M184.271,45h96.459L232.5,69.115L184.271,45z M232.5,85.885L280.729,110H184.27
			L232.5,85.885z M249.271,77.5L305,49.635v55.729L249.271,77.5z M145,45v65h-25V45H145z M85,140v-15h295v15H85z M345,155v65h-25
			v-65H345z M215.729,187.5L160,215.365v-55.729L215.729,187.5z M184.271,155h96.459l-48.23,24.115L184.271,155z M232.5,195.885
			L280.729,220H184.27L232.5,195.885z M249.271,187.5L305,159.635v55.729L249.271,187.5z M145,155v65h-25v-65H145z M85,250v-15h295
			v15H85z M345,265v65h-25v-65H345z M215.729,297.5L160,325.365v-55.729L215.729,297.5z M184.271,265h96.459l-48.23,24.115
			L184.271,265z M232.5,305.885L280.729,330H184.27L232.5,305.885z M249.271,297.5L305,269.635v55.729L249.271,297.5z M145,265v65
			h-25v-65H145z M85,360v-15h295v15H85z M145,450h-25v-75h25V450z M305,450H160v-75h145V450z M345,450h-25v-75h25V450z"/>
	</g>
</g>
</svg>