<svg width="21" height="19" viewBox="0 0 21 19" fill="none" xmlns="http://www.w3.org/2000/svg">
<path d="M12.649 13.5024C12.6803 13.5653 12.6987 13.6339 12.7028 13.7041C12.707 13.7743 12.6969 13.8447 12.6731 13.9108C12.6494 13.977 12.6125 14.0377 12.5646 14.0893C12.5168 14.1408 12.459 14.1821 12.3948 14.2107L2.60104 18.5784C1.04374 19.2732 -0.572923 17.7305 0.198951 16.2847L3.48228 10.1347C3.73749 9.65656 3.73749 9.09302 3.48228 8.61594L0.198951 2.46594C-0.571882 1.02011 1.0427 -0.523645 2.60104 0.172189L6.27291 1.80969C6.71326 2.00614 7.07184 2.34925 7.28749 2.78052L12.649 13.5024Z" fill="#022B3A"/>
<path opacity="0.5" d="M14.0969 12.9067C14.1569 13.0267 14.2609 13.1189 14.3872 13.1641C14.5136 13.2093 14.6525 13.2041 14.775 13.1494L19.799 10.9098C21.1771 10.2952 21.1771 8.45666 19.799 7.84207L10.5302 3.70874C10.4322 3.66502 10.3231 3.65265 10.2178 3.67333C10.1124 3.694 10.0161 3.74671 9.94186 3.82423C9.86763 3.90176 9.81918 4.00032 9.80311 4.10644C9.78704 4.21256 9.80415 4.32105 9.8521 4.41707L14.0969 12.9067Z" fill="#022B3A"/>
</svg>
