<?xml version="1.0" encoding="iso-8859-1"?>
<!-- Uploaded to: SVG Repo, www.svgrepo.com, Generator: SVG Repo Mixer Tools -->
<svg fill="#000000" version="1.1" id="Layer_1" xmlns="http://www.w3.org/2000/svg" xmlns:xlink="http://www.w3.org/1999/xlink" 
	 viewBox="0 0 484.34 484.34" xml:space="preserve">
<g>
	<g>
		<g>
			<path d="M274.624,264.628h-22.808c-1.725-19.14-10.02-36.933-23.815-50.729c-13.796-13.796-31.589-22.091-50.729-23.816v-22.808
				h-15v22.815c-39.457,3.579-70.959,35.081-74.538,74.538H64.919v15h22.815c3.579,39.457,35.081,70.959,74.538,74.538v22.815h15
				v-22.812c20.354-1.883,39.486-11.362,53.35-26.642c12.195-13.295,19.577-30.079,21.201-47.899h22.801V264.628z M169.773,339.522
				c-37.163,0.001-67.396-30.232-67.396-67.394s30.233-67.395,67.395-67.395c15.443,0,30.106,5.205,42.02,14.768l-45.127,45.126
				h-36.837v15h37.045l47.337,43.033C201.983,333.446,186.16,339.522,169.773,339.522z M224.307,311.571l-43.671-39.701
				l41.762-41.761c9.563,11.914,14.768,26.576,14.768,42.02C237.166,286.411,232.64,300.152,224.307,311.571z"/>
			<rect x="219.702" y="69.902" width="29.958" height="15"/>
			<rect x="109.855" y="69.902" width="99.859" height="15"/>
			<rect x="219.702" y="99.86" width="29.958" height="15"/>
			<rect x="179.759" y="99.86" width="29.957" height="15"/>
			<rect x="59.926" y="169.762" width="19.972" height="15"/>
			<rect x="59.926" y="354.502" width="19.972" height="15"/>
			<rect x="259.645" y="169.762" width="19.972" height="15"/>
			<rect x="259.645" y="354.502" width="19.972" height="15"/>
			<path d="M436.906,174.754v-37.437h-15v37.437h-19.972v99.881h19.972v192.219c0,1.051,0,2.359-2.588,2.486H159.785
				c-1.052,0-2.358,0-2.485-2.588v-62.3h34.93v22.458c0,7.029,4.656,17.486,17.485,17.486H349.52
				c7.029,0,17.486-4.657,17.486-17.486V164.79h19.972V64.91h-19.972V27.472h-15v37.437h-19.973v99.88h19.973V426.91
				c0,1.051,0,2.359-2.588,2.486H209.715c-1.052,0-2.358,0-2.485-2.587v-22.357h87.366c9.642,0,17.486-7.844,17.486-17.486V17.486
				C312.082,7.844,304.238,0,294.595,0H44.947c-9.642,0-17.486,7.844-17.486,17.486v369.48c0,9.642,7.845,17.486,17.486,17.486
				h97.353v62.402c0,7.029,4.656,17.486,17.485,17.486h259.635c7.029,0,17.486-4.657,17.486-17.486V274.635h19.972v-99.881H436.906z
				 M347.033,149.789v-69.88h24.944v69.88H347.033z M42.461,17.486c0-1.347,1.138-2.486,2.486-2.486h249.648
				c1.348,0,2.486,1.139,2.486,2.486V134.81h-19.951V34.951H62.413v99.859H42.461V17.486z M262.132,49.951v84.859H77.413V49.951
				H262.132z M44.947,389.453c-1.348,0-2.486-1.139-2.486-2.486V149.811h254.621v237.156c0,1.348-1.139,2.486-2.486,2.486H44.947z
				 M441.879,259.635h-24.943v-69.881h24.943V259.635z"/>
		</g>
	</g>
</g>
</svg>